<svg width="22" height="24" viewBox="0 0 22 24" fill="none" xmlns="http://www.w3.org/2000/svg">
<g clip-path="url(#clip0_0_30)">
<path d="M14.1249 10.9214L9.35293 8.02027C9.07854 7.85346 8.75423 7.85968 8.48528 8.03675C8.21617 8.21399 8.05566 8.5271 8.05566 8.87464V14.6271C8.05566 14.973 8.21519 15.2855 8.48248 15.463C8.62206 15.5556 8.77681 15.6021 8.93188 15.6021C9.07393 15.6021 9.21631 15.5631 9.34732 15.4847L14.1194 12.6336C14.4027 12.4642 14.5796 12.137 14.5809 11.7794C14.582 11.4218 14.4073 11.0931 14.1249 10.9214ZM9.32145 13.9034V9.60413L12.8879 11.7725L9.32145 13.9034Z" fill="black"/>
<path d="M21.4411 7.19659L21.4402 7.18561C21.4219 6.99243 21.2398 5.27417 20.488 4.40021C19.619 3.37225 18.6339 3.24738 18.1601 3.1875C18.1209 3.18256 18.0849 3.17798 18.0528 3.17322L18.0151 3.16882C15.1595 2.93811 10.847 2.90662 10.8038 2.90643L10.8 2.90625L10.7962 2.90643C10.753 2.90662 6.44052 2.93811 3.55924 3.16882L3.52117 3.17322C3.49052 3.1778 3.45674 3.18201 3.41999 3.18677C2.95164 3.24683 1.97704 3.37189 1.10561 4.43701C0.389575 5.30164 0.182593 6.98309 0.161334 7.17206L0.158862 7.19659C0.152435 7.27698 0 9.19061 0 11.1118V12.9077C0 14.8288 0.152435 16.7424 0.158862 16.823L0.160016 16.8351C0.178308 17.0251 0.360242 18.7119 1.10858 19.5862C1.92563 20.5798 2.95873 20.7112 3.51442 20.7819C3.60225 20.7931 3.67789 20.8026 3.72947 20.8127L3.77941 20.8204C5.42818 20.9947 10.5976 21.0806 10.8168 21.084L10.8234 21.0842L10.83 21.084C10.8732 21.0839 15.1855 21.0524 18.0411 20.8217L18.0788 20.8173C18.1149 20.812 18.1555 20.8072 18.2 20.8021C18.6657 20.7471 19.635 20.6331 20.4944 19.5824C21.2104 18.7176 21.4176 17.0361 21.4387 16.8474L21.4411 16.8228C21.4476 16.7422 21.6002 14.8288 21.6002 12.9077V11.1118C21.6 9.19061 21.4476 7.27716 21.4411 7.19659ZM20.3342 12.9077C20.3342 14.6858 20.1945 16.517 20.1813 16.6851C20.1276 17.1482 19.9092 18.212 19.5603 18.6334C19.0224 19.2909 18.4699 19.3561 18.0665 19.4035C18.0177 19.4092 17.9725 19.4147 17.9317 19.4203C15.1697 19.6423 11.02 19.6763 10.8288 19.6776C10.6144 19.6741 5.52063 19.5875 3.92212 19.4225C3.84022 19.4077 3.75172 19.3964 3.65845 19.3846C3.18532 19.3244 2.53768 19.242 2.03967 18.6334L2.02797 18.6194C1.68519 18.2227 1.4731 17.2278 1.41921 16.6906C1.40916 16.5635 1.26579 14.7107 1.26579 12.9077V11.1118C1.26579 9.33563 1.40521 7.50641 1.41872 7.33484C1.48282 6.78937 1.7053 5.78998 2.03967 5.38605C2.59404 4.70856 3.17856 4.63348 3.56517 4.58386C3.60209 4.5791 3.63653 4.57471 3.66834 4.57013C6.47051 4.34711 10.65 4.31396 10.8 4.31268C10.95 4.31378 15.128 4.34711 17.9053 4.57013C17.9394 4.57489 17.9767 4.57965 18.0167 4.58478C18.4144 4.63513 19.0154 4.7113 19.5669 5.36499L19.572 5.37103C19.9148 5.76782 20.1269 6.78003 20.1808 7.32806C20.1903 7.448 20.3342 9.30487 20.3342 11.1118V12.9077Z" fill="black"/>
</g>
<defs>
<clipPath id="clip0_0_30">
<rect width="21.6001" height="24" fill="white"/>
</clipPath>
</defs>
</svg>
