<svg width="18" height="28" viewBox="0 0 18 28" fill="none" xmlns="http://www.w3.org/2000/svg">
<path d="M0 5.84375C0 5.37617 0.337235 5 0.756414 5H2.19045C2.88383 5 3.49842 5.45 3.78522 6.125H16.7388C17.5677 6.125 18.1729 7.00391 17.9554 7.89688L16.6632 13.2512C16.3953 14.3551 15.497 15.125 14.4727 15.125H5.38L5.55019 16.127C5.61953 16.5242 5.93155 16.8125 6.294 16.8125H15.3804C15.7996 16.8125 16.1368 17.1887 16.1368 17.6562C16.1368 18.1238 15.7996 18.5 15.3804 18.5H6.294C5.2035 18.5 4.26744 17.6352 4.06573 16.4434L2.43944 6.91602C2.41737 6.78242 2.31337 6.6875 2.19045 6.6875H0.756414C0.337235 6.6875 0 6.31133 0 5.84375ZM4.03421 21.3125C4.03421 21.0909 4.07334 20.8715 4.14937 20.6667C4.22539 20.462 4.33683 20.276 4.47731 20.1193C4.61779 19.9626 4.78456 19.8383 4.9681 19.7535C5.15165 19.6686 5.34837 19.625 5.54704 19.625C5.74571 19.625 5.94243 19.6686 6.12597 19.7535C6.30952 19.8383 6.47629 19.9626 6.61677 20.1193C6.75725 20.276 6.86868 20.462 6.94471 20.6667C7.02074 20.8715 7.05987 21.0909 7.05987 21.3125C7.05987 21.5341 7.02074 21.7535 6.94471 21.9583C6.86868 22.163 6.75725 22.349 6.61677 22.5057C6.47629 22.6624 6.30952 22.7867 6.12597 22.8715C5.94243 22.9564 5.74571 23 5.54704 23C5.34837 23 5.15165 22.9564 4.9681 22.8715C4.78456 22.7867 4.61779 22.6624 4.47731 22.5057C4.33683 22.349 4.22539 22.163 4.14937 21.9583C4.07334 21.7535 4.03421 21.5341 4.03421 21.3125ZM14.624 19.625C15.0252 19.625 15.41 19.8028 15.6937 20.1193C15.9775 20.4357 16.1368 20.8649 16.1368 21.3125C16.1368 21.7601 15.9775 22.1893 15.6937 22.5057C15.41 22.8222 15.0252 23 14.624 23C14.2228 23 13.838 22.8222 13.5543 22.5057C13.2706 22.1893 13.1112 21.7601 13.1112 21.3125C13.1112 20.8649 13.2706 20.4357 13.5543 20.1193C13.838 19.8028 14.2228 19.625 14.624 19.625Z" fill="black"/>
</svg>
