<svg width="24" height="28" viewBox="0 0 24 28" fill="none" xmlns="http://www.w3.org/2000/svg">
<path d="M12.375 14C12.375 14.7805 12.3328 15.5328 12.259 16.25H5.74102C5.66367 15.5328 5.625 14.7805 5.625 14C5.625 13.2195 5.66719 12.4672 5.74102 11.75H12.259C12.3363 12.4672 12.375 13.2195 12.375 14ZM13.3875 11.75H17.7152C17.9016 12.4707 18 13.223 18 14C18 14.777 17.9016 15.5293 17.7152 16.25H13.3875C13.4613 15.5258 13.5 14.7734 13.5 14C13.5 13.2266 13.4613 12.4742 13.3875 11.75ZM17.3461 10.625H13.2434C12.8918 8.37852 12.1957 6.49766 11.2992 5.29531C14.052 6.02305 16.2914 8.01992 17.3426 10.625H17.3461ZM12.1043 10.625H5.8957C6.11016 9.34531 6.44062 8.21328 6.84492 7.2957C7.21406 6.46602 7.62539 5.86484 8.02266 5.48516C8.41641 5.1125 8.74336 5 9 5C9.25664 5 9.58359 5.1125 9.97734 5.48516C10.3746 5.86484 10.7859 6.46602 11.1551 7.2957C11.5629 8.20977 11.8934 9.3418 12.1043 10.625ZM4.75664 10.625H0.653906C1.70859 8.01992 3.94453 6.02305 6.70078 5.29531C5.8043 6.49766 5.1082 8.37852 4.75664 10.625ZM0.284766 11.75H4.6125C4.53867 12.4742 4.5 13.2266 4.5 14C4.5 14.7734 4.53867 15.5258 4.6125 16.25H0.284766C0.0984375 15.5293 0 14.777 0 14C0 13.223 0.0984375 12.4707 0.284766 11.75ZM6.84492 20.7008C6.43711 19.7867 6.11016 18.6547 5.8957 17.375H12.1043C11.8898 18.6547 11.5594 19.7867 11.1551 20.7008C10.7859 21.5305 10.3746 22.1316 9.97734 22.5113C9.58359 22.8875 9.25664 23 9 23C8.74336 23 8.41641 22.8875 8.02266 22.5148C7.62539 22.1352 7.21406 21.534 6.84492 20.7043V20.7008ZM4.75664 17.375C5.1082 19.6215 5.8043 21.5023 6.70078 22.7047C3.94453 21.977 1.70859 19.9801 0.653906 17.375H4.75664ZM17.3461 17.375C16.2914 19.9801 14.0555 21.977 11.3027 22.7047C12.1992 21.5023 12.8918 19.6215 13.2469 17.375H17.3461Z" fill="black"/>
</svg>
